<?xml version="1.0" standalone="no"?>
<!DOCTYPE svg PUBLIC "-//W3C//DTD SVG 20010904//EN"
 "http://www.w3.org/TR/2001/REC-SVG-20010904/DTD/svg10.dtd">
<svg version="1.0" xmlns="http://www.w3.org/2000/svg"
 width="1436.000000pt" height="1436.000000pt" viewBox="0 0 1436.000000 1436.000000"
 preserveAspectRatio="xMidYMid meet">
<metadata>
Created by potrace 1.11, written by Peter Selinger 2001-2013
</metadata>
<g transform="translate(0.000000,1436.000000) scale(0.100000,-0.100000)"
fill="#000000" stroke="none">
<path d="M8000 12433 c-25 -7 -54 -15 -65 -17 -11 -3 -112 -27 -225 -55 -113
-27 -222 -53 -242 -57 -21 -3 -38 -10 -38 -16 0 -5 -4 -6 -10 -3 -5 3 -15 3
-22 -1 -21 -13 -69 -14 -91 -2 -12 7 -24 13 -27 13 -3 0 -24 13 -47 28 -24 15
-45 27 -47 27 -3 0 -27 13 -55 29 -27 16 -52 27 -55 24 -3 -4 -6 0 -6 7 0 12
-39 11 -145 -4 -16 -3 -48 -7 -70 -10 -22 -3 -56 -8 -75 -11 -19 -3 -55 -8
-79 -10 -24 -2 -62 -7 -85 -11 -23 -3 -52 -7 -66 -9 -34 -3 -129 -15 -160 -20
-38 -6 -154 -18 -165 -17 -21 0 -131 13 -155 17 -14 3 -52 7 -85 10 -56 5 -94
10 -170 21 -16 2 -50 6 -75 8 -25 3 -61 7 -80 10 -19 3 -59 7 -89 11 -29 3
-57 8 -62 11 -5 3 -6 -2 -3 -10 3 -9 10 -16 15 -16 5 0 9 -5 9 -10 0 -6 10
-21 23 -34 12 -13 29 -32 38 -42 13 -16 97 -92 135 -124 7 -5 15 -6 18 -3 3 4
6 1 6 -6 0 -7 3 -10 8 -8 4 3 13 -2 21 -10 13 -14 -2 -15 -145 -10 -87 4 -172
9 -189 11 -16 3 -46 8 -65 10 -76 9 -189 36 -260 61 -41 14 -79 27 -85 29 -18
4 -150 70 -187 93 -41 25 -63 30 -52 11 4 -6 9 -32 11 -57 2 -25 6 -53 9 -61
4 -8 8 -29 9 -47 2 -17 7 -37 11 -45 5 -7 9 -20 11 -28 4 -35 47 -150 55 -150
5 0 6 -5 3 -10 -4 -6 1 -22 9 -35 9 -14 14 -25 11 -25 -4 0 3 -15 82 -157 19
-35 39 -63 44 -63 6 0 8 -4 5 -9 -3 -5 5 -20 19 -35 13 -14 21 -26 17 -26 -4
0 -2 -4 3 -8 6 -4 22 -23 36 -42 46 -60 66 -80 74 -72 5 4 5 2 2 -4 -3 -6 16
-31 43 -55 70 -64 72 -65 105 -62 66 6 206 9 210 4 3 -2 -26 -25 -65 -51 -39
-26 -67 -50 -63 -55 5 -4 3 -5 -3 -2 -14 8 -176 -142 -167 -156 3 -6 2 -7 -4
-4 -5 3 -18 -6 -29 -20 -10 -15 -24 -32 -31 -38 -22 -22 -100 -150 -136 -222
l-36 -71 31 4 c18 2 55 6 83 9 114 11 143 15 195 21 30 3 66 7 80 9 34 3 150
16 180 20 136 17 150 17 150 1 0 -9 -6 -13 -14 -10 -7 3 -20 -2 -29 -10 -8 -8
-17 -12 -21 -9 -3 4 -6 1 -6 -6 0 -7 -4 -10 -8 -7 -5 3 -18 -4 -30 -14 -12
-11 -26 -20 -31 -20 -6 0 -14 -6 -18 -12 -4 -7 -17 -18 -28 -25 -11 -6 -19
-16 -17 -22 1 -6 -2 -10 -7 -9 -13 4 -121 -114 -121 -132 0 -6 -4 -10 -10 -10
-5 0 -10 -7 -10 -15 0 -8 -5 -15 -11 -15 -5 0 -7 -4 -4 -10 3 -5 2 -10 -3 -10
-14 0 -114 -189 -106 -202 3 -5 1 -8 -4 -8 -5 0 -17 -26 -27 -57 -11 -32 -23
-62 -27 -67 -4 -6 -8 -20 -8 -32 0 -53 -29 -32 -95 69 -21 31 -42 57 -47 57
-5 0 -6 5 -3 10 3 6 3 10 -2 10 -4 0 -21 23 -36 50 -16 28 -32 50 -38 50 -5 0
-9 7 -9 15 0 9 -6 18 -13 21 -8 3 -14 10 -14 17 0 14 -132 218 -148 229 -5 4
-7 8 -3 8 4 0 -14 33 -41 73 -26 39 -58 90 -71 112 -13 22 -28 42 -32 43 -4 2
-8 8 -8 14 0 6 -13 30 -30 54 -60 89 -63 100 -59 229 1 17 23 168 35 230 9 50
29 130 133 526 l51 196 -27 53 c-16 28 -34 63 -42 77 -7 14 -41 53 -75 87 -83
83 -126 96 -331 96 -55 0 -113 -2 -130 -6 -29 -6 -53 -10 -85 -13 -12 -1 -12
-4 3 -12 9 -5 22 -7 27 -4 6 3 10 1 10 -4 0 -6 7 -11 15 -11 9 0 34 -12 58
-27 23 -14 48 -26 54 -26 7 0 11 -2 9 -4 -2 -3 11 -19 31 -36 40 -37 47 -85
18 -117 -13 -14 -14 -20 -5 -20 7 0 11 -3 8 -6 -4 -3 3 -27 15 -52 23 -53 26
-142 5 -201 -7 -20 -12 -38 -13 -41 -4 -24 -35 -66 -106 -141 -54 -58 -69 -64
-69 -27 0 10 -4 18 -8 18 -5 0 -9 6 -9 14 0 23 -162 355 -183 376 -3 3 -14 23
-25 45 -75 154 -151 227 -280 270 -64 21 -94 26 -175 25 -75 0 -114 -6 -144
-23 -12 -6 -25 -11 -31 -12 -23 -1 -103 -61 -139 -104 -54 -66 -82 -141 -83
-224 -1 -63 13 -117 30 -117 7 0 10 24 5 35 -2 2 7 12 20 20 12 9 20 20 17 25
-3 4 2 11 11 14 8 3 12 11 8 17 -4 7 -3 9 3 6 6 -4 16 0 23 8 7 8 9 15 4 15
-5 0 10 9 33 21 24 12 40 25 37 30 -3 5 -2 8 3 7 12 -4 83 24 83 32 0 10 40 6
41 -5 0 -5 1 -42 1 -81 0 -39 3 -76 7 -82 6 -10 42 -21 86 -27 25 -3 98 -37
107 -50 4 -5 8 -7 8 -2 0 4 9 -2 20 -13 12 -12 26 -18 33 -14 7 4 9 4 5 -1 -4
-4 6 -20 22 -35 17 -16 30 -33 30 -38 0 -6 4 -12 9 -14 22 -9 49 -116 48 -193
-2 -78 -2 -79 -32 -87 -64 -18 -308 -24 -545 -13 -65 2 -91 0 -109 -12 -32
-21 -86 -76 -83 -85 1 -5 -4 -8 -11 -9 -18 0 -74 -91 -96 -156 -22 -67 -24
-156 -4 -222 18 -61 71 -171 83 -171 5 0 10 -8 13 -17 3 -15 8 40 8 100 0 9 4
17 10 17 5 0 8 3 7 8 -4 13 13 52 23 52 5 0 9 6 9 14 0 8 7 17 16 20 8 3 12
11 8 17 -4 7 -3 9 3 6 14 -9 35 17 25 29 -4 5 -3 6 2 1 5 -4 16 -1 25 7 18 16
57 11 157 -21 l62 -20 46 22 c25 12 46 20 46 18 0 -2 14 3 30 12 17 9 30 13
30 10 0 -3 9 -1 21 6 12 6 35 13 52 15 18 2 43 6 57 10 62 14 142 3 168 -23 8
-7 19 -10 25 -6 7 3 9 3 5 -2 -4 -4 0 -15 10 -24 45 -40 96 -133 107 -195 21
-111 -4 -195 -77 -262 -21 -18 -43 -34 -49 -34 -5 0 -7 -5 -4 -10 4 -6 3 -10
-2 -9 -16 4 -63 -13 -63 -23 0 -5 -4 -7 -9 -4 -5 4 -40 -1 -78 -10 l-68 -17 3
-86 3 -86 -38 -11 c-61 -16 -186 -11 -217 9 -14 10 -26 15 -26 11 0 -3 -9 4
-20 17 l-20 24 6 -30 c4 -16 11 -33 16 -36 6 -3 9 -9 9 -13 -3 -23 2 -36 24
-60 13 -14 24 -30 23 -34 -2 -12 86 -70 117 -78 51 -12 160 -13 206 -2 24 5
52 11 61 13 38 8 90 39 115 69 14 17 26 30 27 28 1 -2 9 0 18 3 10 4 15 11 12
16 -3 5 0 9 5 9 9 0 35 19 75 55 6 6 43 37 81 69 39 32 72 63 73 67 2 5 10 9
18 9 7 0 19 9 26 20 17 27 25 25 44 -12 9 -18 21 -36 26 -39 5 -3 10 -10 10
-15 2 -23 21 -64 31 -64 6 0 8 -3 5 -6 -4 -3 5 -31 19 -61 14 -31 29 -70 34
-87 4 -17 14 -56 23 -86 27 -100 36 -231 22 -325 -10 -67 -16 -99 -21 -125 -3
-14 -8 -38 -11 -54 -2 -16 -7 -32 -9 -35 -2 -4 -6 -27 -10 -51 -4 -25 -10 -64
-14 -86 -9 -46 -6 -202 4 -249 10 -46 19 -49 46 -13 13 17 36 43 51 56 15 14
25 29 22 33 -3 5 0 9 6 9 14 0 59 51 60 67 0 7 3 12 8 11 4 -1 22 13 41 32 27
27 35 31 40 20 9 -23 133 -170 143 -170 5 0 7 -4 4 -9 -4 -5 -3 -11 1 -13 5
-1 28 -28 53 -58 25 -30 49 -60 55 -66 39 -43 70 -90 71 -108 0 -12 4 -33 7
-48 l7 -27 -87 4 c-231 12 -321 18 -453 30 -44 5 -180 28 -210 36 -8 2 -21 15
-28 29 -34 61 -202 505 -202 533 0 8 -3 17 -7 21 -4 4 -19 46 -33 94 -28 97
-30 99 -156 142 -82 28 -97 31 -182 37 -118 8 -259 -30 -321 -88 -11 -11 -23
-19 -26 -19 -13 0 -94 -83 -89 -91 3 -5 -3 -9 -13 -10 -16 0 -16 -1 2 -8 11
-5 22 -7 26 -5 3 1 67 5 143 8 76 4 143 9 149 13 10 6 -16 -43 -74 -141 -22
-37 -22 -39 -4 -31 54 22 128 9 179 -34 14 -11 17 -12 11 -2 -5 10 -4 12 3 7
7 -4 12 -13 12 -20 0 -7 11 -19 25 -26 13 -7 23 -16 22 -19 -1 -3 11 -25 26
-48 15 -24 27 -47 27 -53 0 -5 5 -10 11 -10 5 0 8 -4 5 -8 -3 -5 1 -20 8 -34
7 -14 15 -39 18 -57 5 -31 4 -32 -31 -26 -20 4 -45 8 -56 9 -11 2 -56 10 -100
19 -44 9 -91 19 -105 21 -14 3 -36 8 -50 11 -32 7 -86 15 -130 19 -35 3 -88
-17 -102 -38 -4 -6 -8 -7 -8 -1 0 13 -56 -50 -84 -94 -21 -32 -44 -90 -53
-131 -9 -39 -6 -140 6 -182 8 -26 24 -59 36 -72 13 -14 20 -27 17 -30 -3 -3 0
-6 6 -6 6 0 15 12 18 27 16 61 99 175 146 199 15 8 28 11 28 7 0 -5 14 -24 30
-43 16 -19 30 -39 30 -43 0 -5 5 -5 12 -1 6 4 8 3 4 -4 -3 -6 1 -18 10 -26 12
-12 26 -14 57 -9 85 14 224 6 245 -14 13 -12 36 -18 57 -13 5 1 7 -2 3 -6 -5
-4 8 -18 27 -31 19 -13 35 -27 35 -32 0 -4 -39 -20 -87 -35 -115 -36 -354
-111 -420 -133 -29 -9 -53 -21 -53 -26 0 -4 -4 -5 -10 -2 -5 3 -15 -5 -22 -19
-6 -14 -15 -26 -21 -26 -5 0 -7 -6 -4 -14 3 -8 2 -16 -3 -18 -19 -7 -38 -114
-35 -205 4 -104 22 -180 67 -272 30 -60 125 -177 136 -167 3 3 11 -2 18 -12
20 -28 23 -11 8 48 -20 73 -23 165 -8 218 6 23 10 42 6 42 -3 0 5 9 18 20 21
18 42 29 27 13 -7 -6 25 -28 106 -73 20 -11 38 -16 38 -10 1 5 2 14 3 18 0 5
16 33 35 63 19 30 34 57 33 61 -1 5 4 7 11 5 6 -1 11 4 10 11 -2 6 4 12 13 12
8 0 12 5 9 10 -3 6 -1 10 5 10 6 0 26 16 45 35 19 19 35 32 35 29 0 -3 12 3
28 14 73 52 195 67 267 32 38 -18 137 -110 119 -110 -4 0 0 -8 9 -18 10 -10
14 -22 10 -25 -3 -4 -1 -7 5 -7 7 0 12 -9 12 -19 0 -11 5 -23 11 -26 21 -13
-2 -102 -49 -192 -23 -45 -22 -48 34 -76 17 -9 35 -13 39 -9 5 4 5 2 1 -5 -4
-7 6 -16 28 -24 31 -11 33 -14 25 -41 -4 -16 -9 -32 -10 -36 -1 -4 -5 -17 -10
-30 -5 -13 -9 -25 -9 -28 0 -2 -12 -23 -27 -47 -15 -23 -26 -46 -25 -50 1 -5
-2 -6 -8 -2 -5 3 -10 2 -10 -2 0 -5 -15 -17 -32 -28 l-33 -19 52 -12 c106 -24
274 5 311 53 6 9 12 13 12 8 0 -5 16 7 35 28 53 56 67 94 74 210 1 5 5 6 10 3
10 -7 71 16 71 26 0 4 -5 8 -12 8 -6 0 -8 3 -5 6 4 4 -2 19 -12 33 -10 14 -21
33 -25 41 -3 8 -21 42 -39 75 -18 33 -55 101 -81 150 -77 143 -107 195 -117
201 -5 3 -9 9 -9 14 0 16 160 -43 168 -62 2 -5 8 -8 13 -8 10 0 131 -81 141
-95 5 -7 8 -7 8 0 0 6 5 2 11 -7 5 -10 17 -18 26 -18 9 0 13 -3 10 -6 -4 -4
15 -23 41 -43 77 -58 96 -75 230 -199 109 -101 256 -249 260 -263 2 -5 10 -9
17 -9 8 0 17 -9 20 -20 11 -34 25 -22 26 23 0 23 2 56 3 72 2 17 6 87 10 157
4 70 11 139 15 153 l6 26 30 -38 c51 -64 179 -193 193 -193 7 0 11 -4 8 -8 -3
-5 7 -15 22 -23 15 -8 37 -22 48 -33 12 -10 25 -17 29 -16 4 1 11 -2 14 -7 9
-13 71 -55 71 -49 0 3 9 -3 20 -14 12 -12 25 -18 30 -15 6 4 10 2 10 -3 0 -5
15 -15 33 -23 17 -7 34 -15 37 -18 14 -16 127 -64 284 -122 44 -16 82 -32 84
-34 6 -6 -90 -49 -171 -76 -34 -11 -66 -24 -72 -27 -5 -3 -16 -7 -25 -8 -8 -1
-51 -11 -96 -23 -45 -12 -90 -24 -100 -26 -10 -2 -37 -9 -59 -14 -49 -12 -106
-23 -122 -24 -7 0 -13 -4 -13 -9 0 -5 -3 -7 -8 -4 -19 11 -223 -46 -254 -73
-35 -28 -118 -116 -118 -123 0 -5 -8 -16 -19 -27 -42 -42 -157 -264 -145 -282
3 -5 1 -9 -4 -9 -12 0 -46 -119 -37 -128 4 -4 10 -7 13 -8 4 0 14 -4 22 -7 8
-3 125 -47 260 -98 135 -50 263 -99 285 -108 22 -10 62 -26 88 -36 33 -12 45
-21 38 -28 -6 -6 -16 -12 -23 -13 -7 -1 -88 -36 -179 -78 -91 -42 -171 -76
-177 -76 -7 0 -12 -4 -12 -10 0 -5 -7 -10 -15 -10 -8 0 -15 -5 -15 -12 0 -6
-3 -9 -6 -5 -3 3 -17 2 -29 -3 -18 -7 -30 -4 -48 10 -13 11 -28 16 -32 12 -5
-4 -5 -2 -1 5 7 12 -31 40 -47 35 -5 -1 -6 2 -3 7 3 5 -4 16 -17 24 -12 8 -35
26 -51 40 -17 14 -34 23 -39 20 -6 -3 -7 -1 -4 4 4 6 -6 19 -21 29 -15 10 -33
23 -40 30 -7 7 -34 30 -60 50 -26 21 -62 51 -79 68 -18 16 -33 26 -33 20 0 -5
-4 -4 -8 2 -4 6 -29 15 -57 18 -46 7 -65 10 -120 20 -11 2 -51 9 -90 15 -38 6
-81 13 -95 16 -14 3 -41 7 -60 9 -19 3 -47 7 -61 11 -27 7 -193 -29 -215 -46
-6 -5 -14 -6 -17 -3 -11 11 -117 -37 -117 -53 0 -8 -4 -12 -9 -9 -5 3 -23 -10
-40 -29 -32 -37 -66 -95 -55 -95 4 0 1 -7 -7 -16 -16 -19 -16 -161 0 -177 6
-6 11 -19 11 -29 0 -28 16 -21 31 14 27 66 110 122 195 133 43 6 52 3 75 -19
15 -14 30 -22 34 -18 4 4 5 2 3 -3 -1 -6 7 -23 19 -38 l21 -27 29 23 c33 28
52 37 108 52 17 4 34 10 39 13 14 8 128 6 151 -2 11 -4 30 -12 43 -17 13 -5
28 -6 34 -3 6 4 8 2 5 -3 -6 -9 3 -14 36 -21 6 -2 18 -12 70 -60 11 -9 22 -16
26 -15 4 1 8 -5 8 -13 0 -8 -7 -15 -16 -15 -9 -1 -25 -3 -36 -5 -11 -1 -45 -5
-75 -8 -107 -12 -135 -15 -135 -16 0 -1 -22 -3 -49 -5 -51 -4 -117 -12 -171
-21 -44 -7 -126 -35 -155 -52 -26 -16 -109 -99 -111 -110 0 -4 -2 -16 -5 -27
-13 -66 6 -215 27 -215 6 0 8 -4 5 -9 -10 -16 47 -111 102 -169 29 -32 48 -47
43 -36 -16 34 -8 167 12 197 17 26 32 28 97 14 80 -18 90 -19 104 -4 9 8 17
21 18 28 2 8 25 36 53 64 27 27 48 54 47 58 -1 5 2 6 8 2 5 -3 10 -3 10 2 0 8
82 45 110 50 65 10 109 3 182 -30 44 -20 71 -47 48 -47 -6 0 -10 -6 -10 -13 0
-7 -9 -18 -20 -25 -11 -7 -20 -20 -20 -29 0 -9 -3 -14 -6 -11 -7 8 -50 -34
-46 -44 1 -5 -2 -8 -7 -8 -14 0 -81 -68 -81 -81 0 -7 -3 -10 -6 -6 -8 7 -34
-17 -34 -32 0 -6 -3 -10 -7 -9 -11 4 -59 -45 -55 -55 1 -5 -1 -6 -6 -3 -5 3
-15 -3 -23 -12 -9 -9 -41 -41 -72 -70 -69 -64 -96 -136 -91 -242 3 -84 7 -100
40 -161 36 -65 150 -159 174 -144 6 4 10 2 10 -3 0 -11 69 -32 106 -32 27 1
27 1 9 12 -30 17 -74 61 -75 76 0 6 -5 12 -11 12 -5 0 -7 5 -4 10 3 6 2 10 -3
10 -8 0 -8 58 0 115 4 30 31 45 69 39 19 -2 54 -7 79 -11 25 -4 60 -7 79 -7
37 -1 42 8 55 91 3 21 10 53 15 72 6 19 8 38 5 42 -3 5 -1 9 3 9 5 0 14 17 20
38 27 89 72 178 100 195 7 4 13 15 13 22 0 8 3 14 8 13 4 -1 20 4 37 11 31 13
114 10 155 -7 14 -5 28 -10 32 -11 17 -3 44 -16 56 -25 55 -43 112 -101 128
-131 10 -19 22 -35 26 -35 5 0 8 -9 8 -21 0 -11 4 -17 10 -14 5 3 7 0 4 -8 -3
-8 2 -21 10 -30 8 -8 13 -17 10 -19 -2 -3 2 -20 10 -39 8 -19 14 -37 15 -42 0
-4 3 -23 7 -43 6 -32 8 -34 24 -19 9 8 19 13 22 10 3 -3 32 6 64 21 106 47
111 47 126 8 6 -19 15 -34 18 -34 4 0 7 -6 8 -12 0 -7 3 -23 6 -35 3 -13 9
-33 12 -45 9 -40 5 -223 -6 -223 -1 0 -3 -7 -5 -15 -2 -8 -6 -24 -10 -35 -4
-11 21 9 55 45 81 84 126 179 147 312 8 46 9 285 2 292 -2 2 -29 7 -59 10 -46
5 -60 11 -86 40 -18 19 -35 32 -39 28 -4 -4 -5 -2 -3 4 2 7 -20 38 -48 70 -29
33 -73 86 -100 119 -26 33 -56 67 -66 76 -10 9 -18 21 -18 27 0 5 -7 13 -16
16 -12 5 -13 8 -2 20 7 8 16 12 21 9 4 -2 13 -1 20 4 6 4 19 9 28 10 9 1 29 8
45 14 16 7 35 11 42 10 6 -1 12 2 12 7 0 5 6 9 13 10 6 0 19 3 27 5 8 2 29 7
45 12 17 4 36 12 43 18 6 5 12 7 12 3 0 -3 29 5 64 18 64 24 79 23 84 -4 5
-34 66 -149 75 -143 6 3 7 1 3 -5 -9 -15 127 -175 137 -161 3 4 60 236 62 249
0 3 4 11 8 18 5 6 6 12 2 12 -3 0 -1 8 4 18 6 11 12 30 15 43 2 13 18 62 36
109 17 47 33 90 34 95 2 6 10 27 20 47 9 21 16 42 16 48 0 5 5 10 11 10 6 0 9
6 6 14 -3 8 -3 16 1 18 13 6 77 112 74 123 -2 5 0 7 4 3 9 -9 40 33 36 47 -2
6 -1 7 3 3 4 -3 23 9 43 29 21 19 49 40 65 45 15 5 27 14 27 20 0 5 4 7 9 3 5
-3 12 -1 16 5 4 6 10 8 15 5 5 -3 -4 -44 -20 -90 -16 -47 -26 -85 -23 -85 3 0
1 -6 -5 -12 -6 -7 -10 -16 -10 -21 0 -4 -10 -38 -21 -75 -12 -37 -23 -76 -26
-87 -2 -11 -18 -75 -35 -143 -17 -68 -28 -127 -25 -132 3 -5 1 -10 -5 -12 -6
-2 -11 -22 -13 -45 -1 -24 -5 -43 -8 -43 -3 0 -6 -6 -6 -12 0 -7 -3 -24 -6
-38 -3 -14 -8 -43 -12 -65 -4 -22 -10 -49 -12 -60 -6 -28 -13 -74 -18 -110 -2
-16 -7 -41 -10 -55 -3 -14 -7 -41 -10 -60 -3 -19 -7 -48 -10 -64 -3 -15 -8
-47 -10 -70 -2 -22 -6 -50 -8 -61 -17 -75 -17 -137 -1 -170 9 -19 19 -35 23
-35 3 0 12 -13 19 -28 6 -16 21 -38 32 -50 11 -12 20 -24 20 -28 0 -13 38 -53
45 -46 3 4 5 2 3 -4 -2 -6 41 -70 96 -142 97 -130 126 -163 126 -145 0 5 8 9
18 10 9 0 56 10 103 21 122 30 258 50 367 56 50 2 54 -12 22 -74 -11 -22 -17
-40 -13 -40 4 0 -2 -7 -13 -15 -10 -8 -14 -15 -9 -15 7 0 7 -3 0 -8 -11 -7
-23 -28 -58 -95 -11 -23 -24 -44 -27 -47 -12 -10 -103 -165 -103 -177 0 -7 -4
-10 -8 -7 -4 2 -9 0 -11 -5 -1 -5 -46 -12 -98 -15 -52 -4 -124 -8 -160 -11
-120 -8 -255 -17 -310 -20 -30 -2 -102 -6 -160 -10 -155 -12 -170 -12 -226
-14 -52 -1 -52 -1 -58 -38 -12 -65 -16 -71 -58 -88 -65 -26 -97 -53 -123 -106
-14 -27 -23 -49 -20 -49 2 0 0 -12 -6 -27 -33 -85 -11 -269 39 -321 10 -11 12
-9 14 10 0 13 1 29 1 36 -1 6 3 12 7 12 5 0 12 10 16 23 10 33 63 108 102 144
30 28 37 31 56 21 11 -7 25 -11 29 -10 5 1 6 -2 2 -8 -3 -5 2 -13 12 -17 10
-3 36 -18 58 -33 38 -26 65 -29 65 -9 0 36 126 127 221 159 84 29 208 42 259
28 14 -3 38 -9 55 -13 l29 -6 -48 -31 c-46 -28 -285 -152 -296 -153 -15 -1
-70 -29 -70 -35 0 -4 -6 -7 -12 -7 -20 1 -78 -24 -78 -34 0 -4 -7 -6 -15 -3
-8 4 -15 2 -15 -3 0 -5 -6 -10 -12 -10 -11 0 -124 -49 -136 -59 -3 -2 27 -40
56 -70 10 -11 9 -27 -7 -89 -44 -175 -4 -289 137 -387 l43 -29 -8 28 c-12 46
-7 115 13 158 10 22 17 44 15 50 -1 5 0 7 4 3 7 -7 37 19 52 46 8 15 13 14 46
-8 20 -14 37 -24 37 -21 0 2 15 -9 32 -26 18 -16 36 -29 40 -29 5 0 10 0 13 0
3 0 5 3 4 6 0 4 4 10 9 13 5 3 22 26 37 51 88 142 279 344 344 365 12 3 21 11
21 16 0 5 3 8 8 7 13 -3 62 14 62 22 0 7 48 5 55 -2 2 -2 -1 -24 -6 -48 -6
-25 -12 -49 -13 -55 -1 -5 -10 -27 -19 -49 -9 -21 -17 -41 -17 -44 0 -7 -74
-156 -93 -187 -7 -11 -22 -35 -34 -54 -12 -19 -20 -38 -17 -43 3 -4 1 -8 -4
-8 -8 0 -64 -82 -70 -102 -2 -4 -14 -20 -27 -34 -14 -15 -25 -30 -25 -33 0 -3
34 -42 74 -85 l74 -79 5 -66 c7 -90 10 -111 26 -151 23 -61 54 -120 63 -120 4
0 7 -4 6 -9 -2 -5 12 -26 31 -46 l34 -37 29 89 c15 48 33 96 38 106 6 10 8 23
4 30 -4 7 -4 9 0 5 4 -3 22 22 41 57 56 109 156 199 232 211 21 3 39 7 40 8 1
1 -4 14 -11 28 -8 15 -12 29 -8 32 3 3 0 6 -6 6 -7 0 -11 3 -10 8 1 4 -7 34
-17 67 -12 41 -18 92 -19 160 0 114 5 152 35 233 11 31 21 62 23 68 3 19 84
150 100 163 9 7 13 18 9 24 -3 5 -2 8 3 5 12 -8 65 47 56 58 -4 5 -3 6 2 2 5
-4 30 10 56 32 26 22 53 40 59 40 6 0 11 5 11 10 0 6 3 9 8 9 13 -3 72 25 72
34 0 4 4 6 8 3 5 -3 30 1 56 9 88 27 162 32 281 21 28 -3 50 -5 50 -6 0 -1 10
-3 22 -6 12 -2 28 -5 35 -6 7 -2 20 -13 29 -26 8 -12 19 -19 23 -15 4 5 6 3 5
-2 -4 -12 81 -189 93 -193 4 -2 6 -8 2 -13 -3 -5 1 -21 9 -36 8 -16 20 -41 26
-56 10 -26 13 -27 27 -13 8 9 16 25 17 36 1 11 4 20 8 20 4 0 9 8 12 18 3 9
15 44 27 77 12 33 24 71 26 85 3 14 9 42 13 62 12 52 7 195 -8 243 -16 51 -72
165 -82 165 -12 0 -21 33 -25 95 -5 69 -11 105 -19 113 -3 3 -33 -4 -68 -15
-80 -28 -150 -47 -159 -45 -5 1 -8 -3 -8 -9 0 -5 -4 -8 -9 -5 -5 4 -36 -1 -68
-10 -66 -17 -86 -22 -128 -30 -16 -3 -50 -10 -75 -15 -55 -13 -77 -18 -115
-25 -44 -9 -60 -12 -60 -14 0 -1 -11 -3 -25 -5 -56 -7 -106 -16 -124 -21 -23
-7 -20 -3 48 90 28 38 50 73 48 78 -1 4 2 8 7 8 13 0 117 151 113 164 -2 6 0
8 4 4 7 -8 101 120 97 132 -1 4 3 7 10 7 24 1 163 13 197 17 106 13 165 23
165 26 0 2 19 5 65 13 53 8 135 30 146 38 6 5 14 6 17 2 4 -3 7 -1 7 6 0 7 4
10 9 7 10 -6 93 24 102 37 3 5 8 8 10 6 2 -1 15 1 28 6 20 6 9 15 -90 67 -273
145 -464 299 -580 468 -46 66 -99 168 -99 188 0 7 -4 12 -8 12 -4 0 -8 8 -9
18 0 9 -3 26 -6 37 -23 88 -29 135 -31 235 -3 121 0 150 16 150 5 0 7 -4 4 -9
-7 -11 116 -133 173 -171 24 -16 48 -27 54 -23 6 3 7 1 3 -5 -6 -11 6 -16 19
-9 2 1 10 -5 17 -14 15 -18 191 -96 235 -103 15 -2 29 -5 31 -6 1 -2 7 -4 12
-5 6 -1 11 -3 13 -5 8 -7 163 -37 247 -48 71 -9 406 -9 486 0 81 9 195 28 214
35 8 3 22 7 30 8 54 8 204 56 212 69 4 6 8 8 8 4 0 -13 219 86 231 105 3 5 9
8 13 8 13 -2 114 57 136 79 3 3 24 18 48 33 23 15 42 32 42 38 0 5 5 7 10 4 6
-3 10 1 10 10 0 9 4 14 9 11 15 -10 216 196 204 208 -4 3 -2 6 4 6 12 0 61 61
65 81 2 8 8 18 14 24 11 10 103 175 103 185 0 3 5 19 11 35 7 17 13 37 15 45
2 8 4 15 5 15 3 0 12 39 13 58 1 9 6 17 11 17 5 0 7 3 4 6 -4 3 -2 19 3 36 24
86 31 285 14 401 -18 120 -50 220 -105 325 -42 80 -47 96 -40 123 5 18 7 36 4
40 -3 5 -1 9 3 9 5 0 15 17 22 37 8 20 26 58 42 85 16 26 25 48 22 48 -4 0 3
9 15 20 12 12 22 24 22 29 0 4 11 21 24 36 14 16 22 34 19 39 -3 6 -3 8 2 4 8
-8 92 91 88 104 -2 4 0 7 5 6 4 -1 48 39 97 90 50 51 89 92 86 92 -3 0 11 11
29 25 l35 26 20 -28 c11 -15 27 -35 35 -44 8 -9 16 -22 18 -30 2 -8 10 -21 17
-29 13 -14 34 -60 60 -125 14 -36 21 -65 31 -129 7 -47 8 -48 19 -25 7 13 15
35 16 49 2 14 10 31 17 38 10 12 13 21 12 47 0 3 7 19 15 35 8 16 16 33 16 37
1 5 3 13 5 18 2 6 8 30 15 55 7 25 14 52 17 60 2 8 4 23 5 33 1 9 4 17 8 17 6
0 19 63 22 108 1 12 6 22 10 22 5 0 7 8 6 18 -1 9 1 24 4 32 8 20 38 196 36
207 -1 4 1 19 4 33 15 59 19 119 22 350 2 141 0 252 -5 260 -6 8 -10 10 -10 4
0 -5 -15 -36 -34 -67 -19 -30 -31 -58 -28 -61 3 -3 1 -6 -5 -6 -6 0 -23 -19
-38 -42 -67 -101 -247 -278 -386 -381 -57 -42 -112 -83 -121 -92 -10 -8 -19
-14 -20 -13 -3 3 -121 -63 -128 -71 -8 -9 -130 -67 -172 -82 -21 -7 -38 -17
-38 -22 0 -4 4 -6 9 -2 5 3 12 1 15 -4 3 -5 20 -12 38 -15 31 -6 48 -9 96 -20
18 -4 44 -7 161 -21 55 -6 59 -10 29 -26 -22 -11 -114 -85 -149 -121 -10 -9
-14 -20 -11 -24 4 -4 2 -4 -4 -1 -13 7 -158 -146 -213 -226 -8 -12 -23 -31
-33 -41 -9 -10 -15 -24 -11 -29 3 -6 2 -7 -4 -4 -10 6 -50 -52 -45 -66 1 -5
-1 -6 -6 -3 -5 3 -19 -13 -31 -35 l-23 -39 -65 35 c-36 19 -69 33 -74 29 -5
-3 -9 -1 -9 5 0 8 -71 37 -113 45 -7 2 -19 6 -27 9 -8 4 -26 9 -40 11 -14 3
-34 7 -45 9 -97 22 -343 30 -433 15 -136 -23 -391 -117 -414 -152 -4 -6 -8 -7
-8 -3 0 8 -90 -47 -130 -80 -35 -28 -122 -116 -148 -149 -33 -42 -89 -162 -97
-209 -20 -113 -6 -245 31 -302 8 -13 12 -23 9 -23 -3 0 12 -27 34 -59 41 -60
136 -151 157 -151 7 0 14 -4 16 -8 5 -14 137 -74 148 -67 6 3 10 2 10 -3 0
-10 42 -21 93 -25 15 -1 27 -4 27 -7 0 -6 69 -11 175 -13 111 -2 271 18 281
34 2 4 10 6 17 3 7 -2 51 10 97 27 47 17 93 33 102 36 10 3 16 8 14 12 -3 4 4
8 15 8 19 2 81 40 87 55 2 4 9 8 15 8 6 0 28 17 49 37 96 93 25 -55 -81 -170
-79 -86 -266 -196 -376 -221 -11 -2 -20 -5 -20 -6 0 -2 -45 -13 -105 -25 -46
-9 -144 -16 -215 -15 -70 1 -85 2 -180 16 -54 8 -53 8 -75 16 -8 3 -35 12 -60
19 -25 7 -71 26 -103 41 -31 16 -61 28 -66 28 -5 0 -11 4 -13 8 -5 12 -82 57
-91 54 -5 -1 -6 2 -2 8 3 5 2 10 -3 10 -29 0 -254 270 -225 270 4 0 3 4 -3 8
-23 16 -86 191 -101 282 -2 14 -6 36 -9 50 -9 43 -13 343 -4 388 6 37 5 46
-14 64 -11 12 -14 18 -6 14 8 -4 -20 27 -63 68 -43 42 -85 76 -93 76 -8 0 -13
4 -10 8 3 5 -9 17 -27 27 -18 10 -37 24 -43 29 -21 20 -52 39 -59 37 -4 -2
-11 1 -14 6 -13 19 -85 62 -94 56 -6 -3 -7 -1 -3 5 4 7 1 12 -8 12 -9 0 -16 5
-16 11 0 6 -7 8 -16 5 -8 -3 -13 -2 -10 3 6 9 -53 38 -67 33 -5 -1 -6 2 -3 7
3 5 -6 14 -22 20 -15 6 -46 22 -69 36 -24 13 -43 21 -43 17 0 -4 -4 -2 -8 4
-4 6 -33 23 -64 39 -82 41 -75 56 17 35 63 -14 108 -23 128 -24 9 0 17 -4 17
-8 0 -4 3 -7 8 -6 4 1 41 -9 82 -22 41 -13 78 -24 83 -26 4 -1 9 -3 12 -4 3
-1 8 -3 13 -5 10 -2 40 -15 82 -33 19 -9 40 -16 45 -16 6 -1 12 -3 15 -6 3 -3
47 -27 97 -53 51 -26 133 -75 183 -108 89 -60 240 -198 240 -219 0 -5 5 -10
12 -10 6 0 9 3 5 6 -5 5 10 27 41 59 6 8 12 16 12 19 0 9 101 100 149 133 25
18 51 37 57 42 13 10 189 100 201 102 7 2 119 42 153 56 8 3 22 7 30 8 8 1 51
10 95 20 109 23 178 30 325 28 162 -1 215 -7 328 -35 92 -24 92 -24 93 -4 1
30 6 65 13 113 4 23 9 56 11 72 2 17 6 39 10 50 3 11 8 28 10 39 2 10 14 52
26 93 13 41 23 80 22 87 0 6 3 12 8 12 5 0 9 6 9 13 0 7 10 33 21 57 12 24 22
49 23 54 4 23 91 181 142 256 28 43 49 82 46 86 -4 4 -1 4 6 0 6 -4 12 -4 12
1 0 22 177 208 265 278 70 57 194 139 233 156 17 8 32 17 32 21 0 5 3 7 8 6 7
-1 17 3 97 37 53 22 151 54 189 61 16 3 33 7 36 9 4 3 25 7 46 11 71 10 86 13
91 17 2 3 -7 24 -20 48 -23 41 -61 141 -85 219 -18 57 -51 252 -59 347 -4 48
-7 171 -7 273 0 197 6 312 29 535 12 123 15 141 24 200 10 61 19 121 26 174 2
17 6 38 9 48 3 10 8 36 11 58 3 23 8 52 10 65 3 14 8 39 11 55 3 17 9 48 14
70 5 22 11 54 14 72 7 39 51 236 71 317 8 33 12 63 9 68 -3 4 0 8 7 8 6 0 9 8
6 20 -3 11 0 20 6 20 6 0 8 3 4 6 -3 3 0 26 8 50 7 24 11 44 10 44 -9 0 -81
-45 -87 -55 -5 -6 -8 -6 -8 0 0 7 -3 7 -8 0 -4 -5 -24 -18 -44 -27 -21 -10
-38 -23 -38 -28 0 -6 -4 -9 -8 -6 -5 3 -19 -4 -30 -15 -12 -11 -22 -17 -22
-14 0 8 -84 -37 -88 -47 -2 -5 -10 -8 -18 -8 -8 0 -14 -5 -14 -12 0 -6 -3 -8
-7 -5 -6 7 -73 -29 -84 -46 -3 -5 -9 -8 -13 -8 -17 3 -25 -1 -46 -19 -12 -11
-26 -17 -31 -15 -4 3 -11 1 -14 -5 -4 -6 -39 -27 -78 -47 -40 -19 -74 -38 -77
-42 -3 -3 -57 -33 -120 -65 -63 -33 -117 -62 -120 -65 -3 -3 -36 -22 -75 -41
-38 -18 -72 -37 -75 -40 -3 -3 -33 -19 -67 -35 -35 -17 -63 -33 -63 -37 0 -5
-7 -8 -15 -8 -9 0 -32 -10 -53 -23 -20 -12 -50 -29 -67 -37 -16 -8 -32 -17
-35 -20 -3 -3 -55 -31 -117 -62 -108 -55 -112 -57 -102 -31 5 14 7 28 5 31 -3
2 -1 12 4 21 4 9 11 37 15 61 3 25 8 52 10 60 18 68 27 321 14 395 -5 28 -11
65 -14 84 -3 18 -12 46 -20 62 -8 15 -15 34 -15 42 0 8 -7 18 -16 21 -8 3 -13
10 -10 15 3 4 -3 19 -14 31 l-20 23 -9 -24 c-5 -13 -25 -52 -44 -86 -20 -35
-33 -63 -29 -63 4 0 -1 -5 -10 -11 -10 -5 -18 -14 -18 -19 0 -5 -16 -34 -35
-65 -20 -30 -35 -58 -34 -61 0 -4 -6 -11 -15 -16 -9 -5 -16 -16 -16 -23 0 -8
-4 -15 -9 -15 -5 0 -12 -8 -15 -18 -4 -10 -14 -27 -24 -38 -25 -27 -72 -92
-72 -98 0 -3 -10 -15 -22 -28 -13 -13 -36 -40 -53 -62 -92 -118 -384 -424
-415 -434 -6 -2 -10 -11 -10 -19 0 -9 -3 -13 -6 -10 -9 9 -80 -54 -76 -67 2
-6 0 -8 -4 -4 -6 6 -66 -37 -124 -90 -8 -7 -60 -47 -115 -88 -55 -40 -105 -78
-111 -82 -5 -5 -30 -22 -55 -38 -24 -16 -46 -31 -49 -34 -3 -4 -22 -16 -43
-29 -21 -13 -45 -30 -54 -39 -9 -10 -17 -15 -19 -12 -1 3 -23 -9 -50 -26 -27
-18 -74 -46 -104 -64 -51 -30 -82 -48 -210 -118 -25 -14 -81 -43 -125 -65 -44
-22 -82 -42 -85 -46 -3 -3 -12 -7 -20 -9 -8 -2 -66 -27 -130 -56 -63 -29 -136
-61 -162 -71 -27 -10 -48 -21 -48 -24 0 -4 -8 -7 -17 -8 -10 -1 -47 -14 -83
-28 -89 -37 -349 -125 -366 -125 -8 0 -14 -5 -14 -11 0 -5 -4 -8 -9 -5 -5 4
-22 1 -38 -5 -50 -21 -76 -17 -80 11 -5 37 -6 161 -1 190 6 32 91 202 99 197
2 -2 14 7 26 20 12 13 20 23 17 23 -3 0 21 21 53 46 32 26 64 54 71 63 7 9 16
15 20 14 4 -1 17 6 29 17 12 10 24 16 27 13 3 -4 6 -1 6 6 0 7 4 10 8 7 5 -3
18 2 28 12 11 9 26 18 34 20 8 2 18 9 22 15 4 7 8 9 8 4 0 -4 18 2 40 13 l40
20 14 -32 c19 -43 29 -70 30 -83 1 -5 8 -33 15 -62 14 -50 15 -51 40 -40 14 6
29 16 33 22 4 5 8 7 8 3 0 -12 269 108 281 125 3 5 9 8 13 7 13 -2 126 71 126
82 0 6 3 8 7 4 9 -9 135 123 128 134 -3 4 1 10 8 13 36 14 65 204 38 254 -5
11 -7 24 -3 28 4 4 0 5 -8 3 -8 -3 -14 -11 -13 -17 2 -6 0 -10 -5 -9 -4 1 -27
-8 -51 -21 -82 -43 -166 -39 -391 15 -211 52 -364 63 -465 35 -21 -6 -40 -9
-42 -7 -8 8 -4 43 10 93 46 161 156 282 302 333 11 4 31 12 45 17 27 10 229
10 270 0 38 -10 79 -19 85 -18 2 0 30 -11 60 -25 31 -13 61 -22 66 -19 5 4 9
3 9 -2 0 -4 15 -16 32 -26 31 -18 33 -18 45 0 35 49 112 141 136 162 9 9 17
22 17 30 0 8 3 12 6 9 3 -3 18 6 33 20 50 49 106 92 119 92 6 0 12 4 12 8 0
10 59 37 123 56 50 15 155 18 198 6 26 -8 27 -7 19 16 -10 25 -36 79 -62 127
-9 15 -24 35 -34 43 -11 9 -12 12 -4 8 8 -4 -3 12 -25 35 -47 49 -130 105
-144 97 -5 -3 -11 -1 -13 5 -5 14 -119 16 -248 5 -120 -11 -120 -11 -172 -2
-31 5 -58 18 -75 36 -27 26 -29 27 -73 13z m203 -197 c2 3 10 -3 17 -11 7 -9
9 -15 3 -13 -6 2 -41 -24 -78 -57 -37 -33 -70 -59 -73 -58 -4 1 -63 4 -132 8
-68 3 -126 7 -128 9 -1 2 4 10 12 19 8 8 12 18 8 22 -4 5 -2 5 4 2 6 -3 23 7
39 23 30 31 82 46 190 57 33 3 61 7 63 8 2 2 18 -1 37 -5 19 -4 36 -6 38 -4z
m-1113 -60 c8 -2 34 -7 58 -11 23 -4 42 -9 42 -12 0 -2 -7 -20 -16 -41 -8 -20
-15 -38 -14 -40 0 -1 -6 -17 -14 -35 -7 -19 -17 -43 -20 -55 -10 -32 -36 -42
-97 -37 -51 3 -141 35 -139 49 0 3 -2 17 -6 30 -5 20 -15 25 -77 36 -40 7 -81
14 -92 16 -11 2 -48 9 -82 15 -35 6 -63 15 -63 20 0 5 6 9 13 10 61 2 182 15
182 18 0 1 18 4 40 5 60 5 189 28 198 36 7 6 49 5 87 -4z m2827 -4660 c27 -1
54 -5 59 -8 10 -6 70 -20 79 -19 8 2 32 -18 75 -62 64 -63 62 -142 -4 -195
-14 -11 -22 -23 -18 -27 4 -5 2 -5 -5 -1 -6 3 -14 2 -18 -4 -7 -12 -106 -60
-123 -60 -7 0 -12 -4 -12 -10 0 -6 -3 -9 -7 -8 -15 3 -83 -14 -83 -21 0 -4 -8
-7 -17 -7 -10 -1 -31 -4 -48 -8 -16 -3 -46 -9 -65 -12 -19 -3 -46 -7 -60 -10
-36 -6 -168 -5 -219 1 -24 4 -57 13 -73 21 -15 8 -28 11 -28 7 0 -17 -80 81
-82 100 -4 55 4 93 27 122 13 18 21 36 17 40 -4 3 -2 5 3 3 15 -4 56 27 47 37
-4 5 -2 5 5 2 6 -4 19 1 29 10 10 10 18 17 18 16 3 -7 46 11 46 19 0 5 4 7 9
3 5 -3 15 0 23 7 7 7 24 14 38 16 14 1 27 7 28 12 2 6 7 8 11 5 4 -2 23 0 42
5 52 14 88 20 159 26 35 2 66 7 68 9 2 2 10 1 17 -1 7 -3 35 -7 62 -8z"/>
<path d="M9350 11984 c-41 -13 -91 -27 -110 -30 -19 -3 -38 -8 -41 -10 -3 -2
-21 -6 -39 -9 -19 -3 -39 -10 -46 -15 -6 -6 -13 -7 -16 -4 -3 3 -26 0 -49 -6
-49 -13 -74 -19 -104 -25 -11 -2 -42 -8 -70 -14 -27 -6 -59 -13 -70 -15 -66
-12 -94 -18 -130 -27 -40 -10 -47 -11 -116 -23 -19 -3 -46 -9 -59 -14 -24 -9
-24 -9 6 -17 16 -5 31 -9 34 -9 24 -6 150 -81 150 -90 0 -22 -195 -125 -237
-126 -7 0 -13 -4 -13 -9 0 -4 -8 -8 -17 -8 -10 1 -43 -7 -73 -17 -62 -20 -113
-34 -150 -42 -14 -2 -32 -7 -40 -11 -8 -3 -19 -7 -25 -8 -69 -9 -104 -19 -99
-27 3 -5 13 -8 22 -7 10 1 25 -1 35 -6 9 -4 24 -5 32 -2 8 4 17 3 19 -2 7 -11
296 -5 327 8 15 5 29 7 32 5 14 -14 223 57 239 80 4 6 8 7 8 2 0 -5 9 -1 19 8
25 23 30 12 32 -68 l2 -67 24 16 c13 9 32 23 41 30 9 8 45 35 80 60 34 26 62
50 62 55 0 5 6 10 14 12 26 6 255 220 319 298 30 36 78 117 82 139 2 12 3 21
2 20 -1 -1 -36 -12 -77 -25z"/>
</g>
</svg>
